:SAMPLES-PER-SECOND 30
:FULLY-SPECIFIED
:DEGREES
749
root  4.18261 29.4791 -5.17344 41.1263 15.2189 101.958
Spine  2.05204 0.0283051 12.3057
Spine1  2.72549 -14.8965 6.53572
Neck  3.97569e-016 0 -2.38542e-015
Head  15.5077 -2.25535 33.5987
R_Clavicle  0.548459 -6.29422 3.04788
R_UpperArm  15.8233 22.0987 -16.0604
R_Forearm  9.9133 -3.51283 2.89235
R_Hand  -1.02922 6.74182 -18.9569
L_Clavicle  -1.02467 23.5663 -4.91732
L_UpperArm  -26.4845 12.4172 35.3772
L_Forearm  15.5154 44.1758 60.0424
L_Hand  0.715522 2.93746 9.60676
L_Thigh  -17.2509 -17.0321 20.527
L_Calf  12.2611 -1.60804 12.0326
L_Foot  -2.12375 -4.02233 -7.32453
L_Toe0  0.541387 0.0341632 -6.10402
R_Thigh  30.1293 3.95862 4.85016
R_Calf  -1.80144 -3.13267 -9.80176
R_Foot  0.613998 -7.18101 -15.2705
R_Toe0  -11.1686 1.26539 -9.0565
750
root  3.98333 28.4591 -4.17194 28.4518 17.0678 98.2196
Spine  6.43473 4.50335 15.2802
Spine1  5.25106 -27.177 5.76165
Neck  3.97569e-016 0 -2.38542e-015
Head  15.5489 -2.75722 34.615
R_Clavicle  1.00704 -0.0784243 5.15548
R_UpperArm  16.4354 25.0012 -25.5644
R_Forearm  14.7805 -5.14724 4.26201
R_Hand  -1.26262 6.61806 -20.9283
L_Clavicle  -1.0032 24.4197 -3.81192
L_UpperArm  -24.7743 16.3764 45.3055
L_Forearm  17.4429 44.2251 62.1066
L_Hand  0.654168 2.13098 9.78309
L_Thigh  -9.98188 -19.8464 22.096
L_Calf  -1.79068 -0.615976 4.66331
L_Foot  1.31678 6.4972 -0.887115
L_Toe0  0.643779 0.0333633 -6.01331
R_Thigh  38.884 2.67189 1.17832
R_Calf  -2.74637 -3.82386 -11.9787
R_Foot  1.18872 -4.7438 -16.6842
R_Toe0  -10.0536 1.23796 -9.71475
751
root  3.55572 27.3808 -3.3103 19.3871 19.0847 94.5621
Spine  9.95421 6.61832 17.8586
Spine1  7.41141 -33.8507 5.41181
Neck  3.97569e-016 0 -2.38542e-015
Head  15.8572 -4.40237 35.6559
R_Clavicle  1.48887 3.34161 6.88857
R_UpperArm  12.6171 29.8895 -32.7015
R_Forearm  19.6005 -10.0279 8.42208
R_Hand  -1.45376 6.23449 -22.6644
L_Clavicle  -0.844002 23.9248 -2.1056
L_UpperArm  -23.7781 21.1885 53.2817
L_Forearm  13.2301 42.8978 63.5829
L_Hand  0.351659 -0.866908 8.46569
L_Thigh  -5.11899 -21.9196 22.3403
L_Calf  -14.6018 0.655811 -4.61435
L_Foot  1.94831 3.24689 5.03053
L_Toe0  0.49362 0.0345323 -6.14589
R_Thigh  44.8714 -0.272207 -2.67101
R_Calf  1.47477 -4.35233 -13.6391
R_Foot  1.85361 -1.91381 -18.7926
R_Toe0  -15.9921 4.71526 0.0612057
752
root  3.26665 26.6842 -2.75632 14.9049 21.4505 92.2483
Spine  11.7546 6.84245 18.8237
Spine1  8.7665 -35.2502 5.82746
Neck  3.97569e-016 0 -2.38542e-015
Head  16.1114 -6.5242 36.4851
R_Clavicle  1.65774 4.02992 7.51621
R_UpperArm  6.47533 34.4266 -35.5719
R_Forearm  19.5735 -15.351 13.1633
R_Hand  -1.34631 6.58711 -21.638
L_Clavicle  -0.680969 22.6966 -0.472543
L_UpperArm  -24.3264 24.9268 57.5712
L_Forearm  7.78241 40.6287 63.9669
L_Hand  0.167142 -3.00853 6.76513
L_Thigh  -4.58782 -23.5687 21.6695
L_Calf  -18.6794 1.36522 -9.85408
L_Foot  1.02354 -1.71215 7.53297
L_Toe0  0.504643 0.0344435 -6.13581
R_Thigh  47.3557 -3.95299 -5.06853
R_Calf  6.22075 -5.13762 -16.1649
R_Foot  2.11273 1.10972 -17.7129
R_Toe0  -11.987 6.42429 9.81848
753
root  3.26601 26.6718 -2.63906 15.2514 23.1482 92.1381
Spine  11.8518 6.84307 17.9077
Spine1  8.96966 -33.3664 6.48766
Neck  3.97569e-016 0 -2.38542e-015
Head  15.7932 -7.94952 37.63
R_Clavicle  1.4923 3.5871 6.87775
R_UpperArm  4.90804 35.5935 -32.0371
R_Forearm  15.2554 -17.6136 15.2749
R_Hand  -0.916463 7.04756 -18.0783
L_Clavicle  -0.587071 21.5708 0.597393
L_UpperArm  -26.1789 25.9509 57.2547
L_Forearm  5.96939 38.5806 62.0734
L_Hand  0.14844 -3.11621 6.33956
L_Thigh  -7.42568 -24.0179 21.1357
L_Calf  -16.9333 1.30244 -9.35498
L_Foot  1.63028 0.0677702 7.8624
L_Toe0  0.504853 0.0344445 -6.13593
R_Thigh  45.3967 -6.22735 -4.99962
R_Calf  4.46266 -5.98795 -18.9619
R_Foot  2.26259 3.72514 -15.2908
R_Toe0  -12.8109 5.052 4.58704
754
root  3.45346 27.3674 -3.08419 19.8108 23.1893 94.1064
Spine  10.7104 7.39841 15.5625
Spine1  7.96194 -29.8775 6.83807
Neck  3.97569e-016 0 -2.38542e-015
Head  14.1727 -7.94186 39.2468
R_Clavicle  1.13363 1.91536 5.51054
R_UpperArm  9.26929 32.5061 -22.4633
R_Forearm  12.4951 -16.4081 14.1397
R_Hand  -0.506634 6.89268 -14.6222
L_Clavicle  -0.563662 21.0147 0.806191
L_UpperArm  -27.987 23.9731 52.8211
L_Forearm  7.75853 37.5475 57.7875
L_Hand  0.217737 -2.04034 6.72172
L_Thigh  -10.7355 -22.9062 19.8907
L_Calf  -10.5728 0.535916 -3.72846
L_Foot  2.65978 5.15535 5.73868
L_Toe0  0.494331 0.0345296 -6.14558
R_Thigh  39.6963 -6.10621 -2.77655
R_Calf  -0.911872 -6.07003 -19.2437
R_Foot  1.89777 2.98709 -12.3044
R_Toe0  -19.742 5.72434 -1.04557
755
root  3.74512 28.5893 -4.02055 26.9367 22.1873 97.4348
Spine  8.53167 7.55068 12.6065
Spine1  6.23951 -25.7254 6.68517
Neck  3.97569e-016 0 -2.38542e-015
Head  11.0364 -6.8154 40.6582
R_Clavicle  0.735252 -2.38056 3.92419
R_UpperArm  12.1984 27.6473 -10.0578
R_Forearm  15.3094 -14.4797 12.3639
R_Hand  -0.301989 6.31343 -12.5671
L_Clavicle  -0.597187 21.0826 0.121018
L_UpperArm  -28.8627 19.1661 45.951
L_Forearm  10.5231 37.1857 51.8924
L_Hand  0.231509 -1.20842 5.90181
L_Thigh  -12.7018 -21.3215 17.5947
L_Calf  1.95937 -0.768952 6.40792
L_Foot  1.21824 5.00896 -0.415698
L_Toe0  0.608997 0.0336334 -6.04394
R_Thigh  31.518 -5.22832 0.572553
R_Calf  -0.343798 -5.15036 -16.2378
R_Foot  1.09484 0.0997596 -9.51947
R_Toe0  -19.9326 6.52784 1.07734
756
root  4.01663 29.8771 -5.21709 34.1174 20.6636 100.866
Spine  6.11099 6.90942 9.90461
Spine1  4.60845 -21.6288 6.12073
Neck  3.97569e-016 0 -2.38542e-015
Head  7.12932 -5.50944 41.2225
R_Clavicle  0.46969 -8.79908 2.52895
R_UpperArm  10.535 24.0518 3.25804
R_Forearm  20.1763 -14.3545 12.2485
R_Hand  -0.216418 5.38407 -11.1299
L_Clavicle  -0.647641 21.1178 -0.920545
L_UpperArm  -27.9615 12.5441 38.0846
L_Forearm  11.1672 36.3925 45.4428
L_Hand  0.130711 -1.54295 3.59402
L_Thigh  -13.6718 -17.8267 15.5291
L_Calf  17.0895 -2.9771 18.2558
L_Foot  -3.6295 -10.7913 -10.5917
L_Toe0  0.902577 0.0313351 -5.78333
R_Thigh  22.0023 -4.41152 3.41289
R_Calf  7.1815 -3.8579 -12.1102
R_Foot  0.362083 -2.66124 -8.24053
R_Toe0  -11.0069 3.86827 1.62151
757
root  4.08628 30.8483 -6.44401 39.6145 18.8388 102.904
Spine  4.08612 5.71486 8.01668
Spine1  3.34017 -17.4855 5.12788
Neck  3.97569e-016 0 -2.38542e-015
Head  3.72653 -4.73529 41.1042
R_Clavicle  0.376412 -14.0769 1.53043
R_UpperArm  6.24128 20.5122 15.544
R_Forearm  22.8476 -16.2058 14.052
R_Hand  -0.156825 5.01139 -10.2354
L_Clavicle  -0.630282 20.1024 -1.49522
L_UpperArm  -23.0509 6.32771 30.2721
L_Forearm  6.3406 33.245 39.8743
L_Hand  0.043673 -2.28508 1.20613
L_Thigh  -9.09782 -12.6953 13.1007
L_Calf  18.9752 -7.72544 29.3625
L_Foot  -6.01265 -24.2088 -17.6903
L_Toe0  0.472932 0.0346982 -6.1647
R_Thigh  11.534 -2.93882 4.31828
R_Calf  14.2009 -2.59086 -8.14018
R_Foot  -0.927203 -7.83102 -7.22305
R_Toe0  2.42039 -0.852411 0.407756
758
root  3.95945 31.3153 -7.53432 43.8625 17.598 103.498
Spine  1.95762 3.13403 7.11885
Spine1  1.91834 -12.3311 3.38464
Neck  3.97569e-016 0 -2.38542e-015
Head  1.76078 -4.60036 40.8394
R_Clavicle  0.345296 -16.1299 0.768592
R_UpperArm  0.376887 15.0385 24.3682
R_Forearm  23.1256 -20.5557 17.5182
R_Hand  -0.177004 6.05825 -11.3306
L_Clavicle  -0.524577 17.7503 -1.29477
L_UpperArm  -18.4585 1.81699 23.7335
L_Forearm  -0.639337 27.8258 35.6824
L_Hand  0.0131641 -2.03814 0.221212
L_Thigh  -2.23672 -7.96135 11.0032
L_Calf  7.91189 -9.18666 32.299
L_Foot  -4.75761 -16.2785 -12.5568
L_Toe0  0.505156 0.034446 -6.1361
R_Thigh  0.279344 -1.61281 3.09936
R_Calf  15.9841 -1.55082 -4.89015
R_Foot  -2.06488 -10.9116 -4.94754
R_Toe0  8.58684 -3.04503 2.13216
759
root  3.77943 31.1412 -8.38407 47.3288 17.1308 103.383
Spine  -0.500544 -0.603861 6.92127
Spine1  -0.0210589 -6.55973 1.14343
Neck  3.97569e-016 0 -2.38542e-015
Head  1.28679 -4.77806 40.5029
R_Clavicle  0.3174 -15.9046 0.344958
R_UpperArm  4.28391 8.74029 29.5776
R_Forearm  15.3009 -31.154 20.704
R_Hand  -0.37005 8.38788 -14.2364
L_Clavicle  -0.418328 15.0578 -0.792145
L_UpperArm  -22.4883 -2.63582 19.2956
L_Forearm  -2.20911 23.8932 30.9479
L_Hand  0.0358116 -0.559805 0.801151
L_Thigh  -3.61694 -2.37814 8.91676
L_Calf  2.72785 -4.80381 27.3342
L_Foot  -2.63746 -5.64342 -7.95385
L_Toe0  0.505156 0.034446 -6.1361
R_Thigh  -8.20698 -1.71463 0.8716
R_Calf  12.7165 -1.16639 -3.62873
R_Foot  -1.86681 -6.06781 1.02986
R_Toe0  7.16329 -2.4883 1.06471
760
root  3.65098 30.513 -9.02221 48.5351 16.6271 102.169
Spine  -2.38265 -2.9754 6.46194
Spine1  -1.80002 -2.56024 -0.0511283
Neck  3.97569e-016 0 -2.38542e-015
Head  1.86682 -4.74155 39.5039
R_Clavicle  0.311168 -16.1379 0.165051
R_UpperArm  29.2843 4.23406 34.5427
R_Forearm  -6.02639 -46.8356 24.9408
R_Hand  -0.627691 10.6593 -16.7623
L_Clavicle  -0.358305 13.1759 -0.479034
L_UpperArm  -28.8432 -9.663 16.6061
L_Forearm  -1.51929 21.0707 26.4131
L_Hand  0.0707777 0.794304 1.27019
L_Thigh  3.84551 4.12129 6.73412
L_Calf  -2.50669 -1.8171 14.2961
L_Foot  -1.81938 -2.95981 -6.19044
L_Toe0  0.505156 0.034446 -6.1361
R_Thigh  -9.26382 -2.09435 -0.950259
R_Calf  7.64904 -1.10527 -3.34985
R_Foot  -2.05949 -1.83795 10.8354
R_Toe0  2.66789 -0.653443 -5.69244
761
root  3.57037 29.6333 -9.54931 46.4933 15.5847 99.2463
Spine  -3.22439 -2.85853 4.88367
Spine1  -2.65452 -1.23804 1.02761
Neck  3.97569e-016 0 -2.38542e-015
Head  3.51638 -4.42587 37.1311
R_Clavicle  0.335931 -17.2214 0.27462
R_UpperArm  38.0477 1.65456 41.7481
R_Forearm  -6.6489 -49.244 33.9237
R_Hand  -0.748842 12.0032 -17.8159
L_Clavicle  -0.336729 12.0921 -0.0709822
L_UpperArm  -34.6862 -18.9954 14.6435
L_Forearm  -0.0693352 18.6351 22.9124
L_Hand  -0.00795915 0.23823 -0.0438768
L_Thigh  12.4408 12.2461 2.72635
L_Calf  -1.41198 0.620206 -4.82907
L_Foot  -0.802593 -1.3636 -2.57686
L_Toe0  0.505156 0.034446 -6.1361
R_Thigh  -3.90237 -0.545862 -1.86282
R_Calf  5.45169 -1.13892 -3.3981
R_Foot  -5.05282 -4.69168 21.489
R_Toe0  1.61592 -0.401363 -13.7676
762
root  3.58099 28.6607 -10.0734 43.6838 14.1678 95.8713
Spine  -4.41553 -2.84019 2.7305
Spine1  -3.32105 0.403634 3.1918
Neck  3.97569e-016 0 -2.38542e-015
Head  7.00212 -4.54576 33.4455
R_Clavicle  0.367053 -17.2645 0.945919
R_UpperArm  40.9787 -0.463838 50.2711
R_Forearm  11.028 -43.5463 30.881
R_Hand  -0.814734 12.4021 -18.2622
L_Clavicle  -0.359514 11.0848 1.12134
L_UpperArm  -41.1224 -26.9847 13.1332
L_Forearm  0.342853 16.0021 19.3333
L_Hand  -0.0793877 -2.14178 -2.75967
L_Thigh  19.2711 19.7157 -4.58283
L_Calf  -1.34663 3.29768 -25.1247
L_Foot  1.41331 2.21734 3.89572
L_Toe0  0.505156 0.034446 -6.1361
R_Thigh  2.22726 2.49587 -1.80018
R_Calf  6.83371 -1.5599 -4.65187
R_Foot  -8.40696 -7.74905 30.1196
R_Toe0  -1.44763 -0.252257 -17.323
763
root  3.70714 28.192 -10.6896 43.8068 12.7112 93.8274
Spine  -7.45928 -5.75063 1.47696
Spine1  -5.04094 5.94202 3.9788
Neck  3.97569e-016 0 -2.38542e-015
Head  12.4968 -5.32203 29.565
R_Clavicle  0.408601 -15.6068 1.9233
R_UpperArm  33.2807 -2.30917 58.5115
R_Forearm  34.0611 -29.5677 20.1038
R_Hand  -0.696404 10.852 -17.3123
L_Clavicle  -0.442031 9.64132 3.05428
L_UpperArm  -47.0339 -30.2669 12.4568
L_Forearm  -2.72904 12.5713 14.9151
L_Hand  -0.0737114 -3.58497 -5.02438
L_Thigh  24.0579 24.0099 -13.888
L_Calf  -4.28556 5.31779 -43.0514
L_Foot  3.22555 3.8786 9.42138
L_Toe0  0.505156 0.034446 -6.1361
R_Thigh  5.55305 4.83796 -0.595454
R_Calf  6.60569 -1.89318 -5.59066
R_Foot  -7.55976 -6.33741 29.8102
R_Toe0  -1.80545 -0.272504 -17.3332
